<?xml version="1.0" encoding="utf-8"?><svg xml:space="preserve" viewBox="0 0 100 100" y="0" x="0" xmlns="http://www.w3.org/2000/svg" id="圖層_1" version="1.1" width="47px" height="47px" xmlns:xlink="http://www.w3.org/1999/xlink" style="width:100%;height:100%;background-size:initial;background-repeat-y:initial;background-repeat-x:initial;background-position-y:initial;background-position-x:initial;background-origin:initial;background-image:initial;background-color:rgb(255, 255, 255);background-clip:initial;background-attachment:initial;animation-play-state:paused" ><g class="ldl-scale" style="transform-origin:50% 50%;transform:rotate(0deg) scale(0.8, 0.8);animation-play-state:paused" ><path stroke-miterlimit="10" stroke-width="6" stroke="#e0e0e0" fill="none" d="M46.34 46.762a18.731 18.731 0 0 1-2.901-.584 18.777 18.777 0 0 1-4.026-1.667 18.672 18.672 0 0 1-7.358-7.514" style="stroke:rgb(224, 224, 224);animation-play-state:paused" ></path>
<path fill="#f47e60" d="M32.391 75.559l2.077 3.725-3.725 2.077 2.077 3.725-4.687 2.613 4.702 6.605 7.707-3.244 8.874-31.237a6.527 6.527 0 1 0-12.557-3.567L33.366 68.55l2.75 4.932-3.725 2.077z" style="fill:rgb(244, 126, 96);animation-play-state:paused" ></path>
<path fill="#f47e60" d="M59.432 55.464c2.215-7.796-2.31-15.912-10.106-18.127-7.796-2.215-15.912 2.31-18.127 10.106-2.215 7.796 2.31 15.912 10.106 18.127 7.796 2.215 15.912-2.31 18.127-10.106zm-16.569-9.723a3.92 3.92 0 1 1 7.543 2.144 3.92 3.92 0 0 1-7.543-2.144z" style="fill:rgb(244, 126, 96);animation-play-state:paused" ></path>
<path fill="#f8b26a" d="M57.059 78.489l3.661 2.187-2.187 3.661 3.661 2.187-2.753 4.607 7.375 3.369 5.052-6.663-7.933-31.489a6.526 6.526 0 0 0-12.657 3.189l3.123 12.395 4.847 2.896-2.189 3.661z" style="fill:rgb(248, 178, 106);animation-play-state:paused" ></path>
<path stroke-miterlimit="10" stroke-width="6" stroke="#e0e0e0" fill="none" d="M54.738 45.837a18.593 18.593 0 0 1-8.398.925" style="stroke:rgb(224, 224, 224);animation-play-state:paused" ></path>
<path fill="#f8b26a" d="M70.429 47.566c-1.98-7.859-9.956-12.625-17.816-10.645-7.859 1.98-12.625 9.956-10.645 17.816 1.98 7.859 9.956 12.626 17.816 10.645 7.859-1.98 12.625-9.956 10.645-17.816zm-19.21-.135a3.92 3.92 0 1 1 7.603-1.915 3.92 3.92 0 0 1-7.603 1.915z" style="fill:rgb(248, 178, 106);animation-play-state:paused" ></path>
<path stroke-miterlimit="10" stroke-width="6" stroke="#e0e0e0" fill="none" d="M32.056 36.998a18.633 18.633 0 0 1-1.49-13.909c2.821-9.931 13.159-15.694 23.09-12.873s15.694 13.159 12.873 23.09c-1.725 6.071-6.258 10.584-11.79 12.531" style="stroke:rgb(224, 224, 224);animation-play-state:paused" ></path>
<metadata xmlns:d="https://loading.io/stock/" style="animation-play-state:paused" ><d:name style="animation-play-state:paused" >keychain</d:name>


<d:tags style="animation-play-state:paused" >keychain,unlock,access,token,secret,password,door</d:tags>


<d:license style="animation-play-state:paused" >by</d:license>


<d:slug style="animation-play-state:paused" >ye0ufo</d:slug></metadata></g><!-- generated by https://loading.io/ --></svg>