<?xml version="1.0" encoding="UTF-8" standalone="no"?>
<svg xmlns="http://www.w3.org/2000/svg" version="1.1" viewBox="0 0 256 256" width="256" height="256">
<path d="m58.253 146.27h85.193v4.7889h-85.193zm0-9.5779h112.74v4.7889h-112.74zm0-9.4154h139.04v4.7889h-139.04zm0-9.4968h139.04v4.7889h-139.04zm0-9.5779h139.04v4.7889h-139.04zm0-9.5779h139.04v4.7889h-139.04zm0-9.4154h139.04v4.7889h-139.04zm0-9.5779h139.04v4.7889h-139.04zm0-9.5779h139.04v4.7889h-139.04zm0-9.5779h139.04v4.7889h-139.04zm-18.595-38.323-0.0059 0.0078c-6.436 0-11.691 5.2571-11.691 11.693v0.56055c0 5.4006 3.7058 9.9567 8.6992 11.287v127.31c0.000276 2.7613 2.2387 4.9997 5 5h78.928v2.707c-3.7922 2.4221-6.332 6.6472-6.332 11.449 0 2.1654 0.55917 4.1921 1.4688 6.0137l-47.32 34.973 11.244-0.0293 12.271-0.0293 31.549-28.125c1.3841 0.47794 2.8452 0.79492 4.3867 0.79492 1.4454 0 2.8158-0.28884 4.125-0.71094l31.811 28.041 23.506 0.0547-9.0449-6.6777-38.273-28.285c0.91314-1.8241 1.4766-3.8535 1.4766-6.0234 0-4.8358-2.5787-9.0813-6.416-11.494v-2.6582h79.021c2.7613-0.00028 4.9997-2.2387 5-5v-127.24c5.1346-1.2316 8.9805-5.8582 8.9805-11.359v-0.5625c0-6.4361-5.2571-11.691-11.693-11.691h-176.69zm7.002 26.559h162.4v119.3h-162.4z" fill="#72a7cf"/>
</svg>
